<svg xmlns="http://www.w3.org/2000/svg" xmlns:xlink="http://www.w3.org/1999/xlink" contentStyleType="text/css" data-diagram-type="CLASS" height="648px" preserveAspectRatio="none" style="width:915px;height:648px;background:#FFFFFF;" version="1.1" viewBox="0 0 915 648" width="915px" zoomAndPan="magnify"><?plantuml 1.2026.3beta4?><defs/><g><!--class Fighter--><g class="entity" data-qualified-name="Fighter" data-source-line="2" id="ent0002"><rect fill="#F1F1F1" height="96.8906" rx="2.5" ry="2.5" style="stroke:#181818;stroke-width:0.5;" width="117.2734" x="153.54" y="428.78"/><ellipse cx="184.6108" cy="444.78" fill="#B4A7E5" rx="11" ry="11" style="stroke:#181818;stroke-width:1;"/><path d="M180.5327,440.5456 L180.5327,438.3894 L187.9233,438.3894 L187.9233,440.5456 L185.4546,440.5456 L185.4546,448.6238 L187.9233,448.6238 L187.9233,450.78 L180.5327,450.78 L180.5327,448.6238 L183.0014,448.6238 L183.0014,440.5456 L180.5327,440.5456 Z " fill="#000000"/><text fill="#000000" font-family="sans-serif" font-size="14" font-style="italic" lengthAdjust="spacing" textLength="49.5605" x="202.1821" y="449.6267">Fighter</text><line style="stroke:#181818;stroke-width:0.5;" x1="154.54" x2="269.8134" y1="460.78" y2="460.78"/><line style="stroke:#181818;stroke-width:0.5;" x1="154.54" x2="269.8134" y1="468.78" y2="468.78"/><g data-visibility-modifier="PUBLIC_METHOD"><ellipse cx="164.54" cy="482.4284" fill="#84BE84" rx="3" ry="3" style="stroke:#038048;stroke-width:1;"/></g><text fill="#000000" font-family="sans-serif" font-size="14" lengthAdjust="spacing" textLength="77.7998" x="173.54" y="485.7751">getSpeed()</text><g data-visibility-modifier="PUBLIC_METHOD"><ellipse cx="164.54" cy="498.7253" fill="#84BE84" rx="3" ry="3" style="stroke:#038048;stroke-width:1;"/></g><text fill="#000000" font-family="sans-serif" font-size="14" lengthAdjust="spacing" textLength="91.2734" x="173.54" y="502.072">getWeapon()</text><g data-visibility-modifier="PUBLIC_METHOD"><ellipse cx="164.54" cy="515.0222" fill="#84BE84" rx="3" ry="3" style="stroke:#038048;stroke-width:1;"/></g><text fill="#000000" font-family="sans-serif" font-size="14" lengthAdjust="spacing" textLength="42.9912" x="173.54" y="518.3689">fight()</text></g><!--class Monster--><g class="entity" data-qualified-name="Monster" data-source-line="8" id="ent0003"><rect fill="#F1F1F1" height="96.8906" rx="2.5" ry="2.5" style="stroke:#181818;stroke-width:0.5;" width="141.3701" x="605.49" y="428.78"/><ellipse cx="644.2051" cy="444.78" fill="#B4A7E5" rx="11" ry="11" style="stroke:#181818;stroke-width:1;"/><path d="M640.127,440.5456 L640.127,438.3894 L647.5176,438.3894 L647.5176,440.5456 L645.0488,440.5456 L645.0488,448.6238 L647.5176,448.6238 L647.5176,450.78 L640.127,450.78 L640.127,448.6238 L642.5957,448.6238 L642.5957,440.5456 L640.127,440.5456 Z " fill="#000000"/><text fill="#000000" font-family="sans-serif" font-size="14" font-style="italic" lengthAdjust="spacing" textLength="56.6699" x="663.4751" y="449.6267">Monster</text><line style="stroke:#181818;stroke-width:0.5;" x1="606.49" x2="745.8601" y1="460.78" y2="460.78"/><line style="stroke:#181818;stroke-width:0.5;" x1="606.49" x2="745.8601" y1="468.78" y2="468.78"/><g data-visibility-modifier="PUBLIC_METHOD"><ellipse cx="616.49" cy="482.4284" fill="#84BE84" rx="3" ry="3" style="stroke:#038048;stroke-width:1;"/></g><text fill="#000000" font-family="sans-serif" font-size="14" lengthAdjust="spacing" textLength="83.002" x="625.49" y="485.7751">getVitality()</text><g data-visibility-modifier="PUBLIC_METHOD"><ellipse cx="616.49" cy="498.7253" fill="#84BE84" rx="3" ry="3" style="stroke:#038048;stroke-width:1;"/></g><text fill="#000000" font-family="sans-serif" font-size="14" lengthAdjust="spacing" textLength="115.3701" x="625.49" y="502.072">getIntelligence()</text><g data-visibility-modifier="PUBLIC_METHOD"><ellipse cx="616.49" cy="515.0222" fill="#84BE84" rx="3" ry="3" style="stroke:#038048;stroke-width:1;"/></g><text fill="#000000" font-family="sans-serif" font-size="14" lengthAdjust="spacing" textLength="37.8027" x="625.49" y="518.3689">bite()</text></g><!--class SlowFighter--><g class="entity" data-qualified-name="SlowFighter" data-source-line="15" id="ent0004"><rect fill="#F1F1F1" height="48" rx="2.5" ry="2.5" style="stroke:#181818;stroke-width:0.5;" width="114.3525" x="7" y="585.67"/><ellipse cx="22" cy="601.67" fill="#ADD1B2" rx="11" ry="11" style="stroke:#181818;stroke-width:1;"/><path d="M24.9688,607.3106 Q24.3906,607.6075 23.75,607.7481 Q23.1094,607.9044 22.4063,607.9044 Q19.9063,607.9044 18.5781,606.2638 Q17.2656,604.6075 17.2656,601.4825 Q17.2656,598.3575 18.5781,596.7013 Q19.9063,595.045 22.4063,595.045 Q23.1094,595.045 23.75,595.2013 Q24.4063,595.3575 24.9688,595.6544 L24.9688,598.3731 Q24.3438,597.795 23.75,597.5294 Q23.1563,597.2481 22.5313,597.2481 Q21.1875,597.2481 20.5,598.3263 Q19.8125,599.3888 19.8125,601.4825 Q19.8125,603.5763 20.5,604.6544 Q21.1875,605.7169 22.5313,605.7169 Q23.1563,605.7169 23.75,605.4513 Q24.3438,605.17 24.9688,604.5919 L24.9688,607.3106 Z " fill="#000000"/><text fill="#000000" font-family="sans-serif" font-size="14" lengthAdjust="spacing" textLength="82.3525" x="36" y="606.5167">SlowFighter</text><line style="stroke:#181818;stroke-width:0.5;" x1="8" x2="120.3525" y1="617.67" y2="617.67"/><line style="stroke:#181818;stroke-width:0.5;" x1="8" x2="120.3525" y1="625.67" y2="625.67"/></g><!--class SlowMonster--><g class="entity" data-qualified-name="SlowMonster" data-source-line="16" id="ent0006"><rect fill="#F1F1F1" height="48" rx="2.5" ry="2.5" style="stroke:#181818;stroke-width:0.5;" width="121.4619" x="460.45" y="585.67"/><ellipse cx="475.45" cy="601.67" fill="#ADD1B2" rx="11" ry="11" style="stroke:#181818;stroke-width:1;"/><path d="M478.4188,607.3106 Q477.8406,607.6075 477.2,607.7481 Q476.5594,607.9044 475.8563,607.9044 Q473.3563,607.9044 472.0281,606.2638 Q470.7156,604.6075 470.7156,601.4825 Q470.7156,598.3575 472.0281,596.7013 Q473.3563,595.045 475.8563,595.045 Q476.5594,595.045 477.2,595.2013 Q477.8563,595.3575 478.4188,595.6544 L478.4188,598.3731 Q477.7938,597.795 477.2,597.5294 Q476.6063,597.2481 475.9813,597.2481 Q474.6375,597.2481 473.95,598.3263 Q473.2625,599.3888 473.2625,601.4825 Q473.2625,603.5763 473.95,604.6544 Q474.6375,605.7169 475.9813,605.7169 Q476.6063,605.7169 477.2,605.4513 Q477.7938,605.17 478.4188,604.5919 L478.4188,607.3106 Z " fill="#000000"/><text fill="#000000" font-family="sans-serif" font-size="14" lengthAdjust="spacing" textLength="89.4619" x="489.45" y="606.5167">SlowMonster</text><line style="stroke:#181818;stroke-width:0.5;" x1="461.45" x2="580.9119" y1="617.67" y2="617.67"/><line style="stroke:#181818;stroke-width:0.5;" x1="461.45" x2="580.9119" y1="625.67" y2="625.67"/></g><!--class MedFighter--><g class="entity" data-qualified-name="MedFighter" data-source-line="17" id="ent0008"><rect fill="#F1F1F1" height="48" rx="2.5" ry="2.5" style="stroke:#181818;stroke-width:0.5;" width="111.1396" x="156.61" y="585.67"/><ellipse cx="171.61" cy="601.67" fill="#ADD1B2" rx="11" ry="11" style="stroke:#181818;stroke-width:1;"/><path d="M174.5788,607.3106 Q174.0006,607.6075 173.36,607.7481 Q172.7194,607.9044 172.0163,607.9044 Q169.5163,607.9044 168.1881,606.2638 Q166.8756,604.6075 166.8756,601.4825 Q166.8756,598.3575 168.1881,596.7013 Q169.5163,595.045 172.0163,595.045 Q172.7194,595.045 173.36,595.2013 Q174.0163,595.3575 174.5788,595.6544 L174.5788,598.3731 Q173.9538,597.795 173.36,597.5294 Q172.7663,597.2481 172.1413,597.2481 Q170.7975,597.2481 170.11,598.3263 Q169.4225,599.3888 169.4225,601.4825 Q169.4225,603.5763 170.11,604.6544 Q170.7975,605.7169 172.1413,605.7169 Q172.7663,605.7169 173.36,605.4513 Q173.9538,605.17 174.5788,604.5919 L174.5788,607.3106 Z " fill="#000000"/><text fill="#000000" font-family="sans-serif" font-size="14" lengthAdjust="spacing" textLength="79.1396" x="185.61" y="606.5167">MedFighter</text><line style="stroke:#181818;stroke-width:0.5;" x1="157.61" x2="266.7496" y1="617.67" y2="617.67"/><line style="stroke:#181818;stroke-width:0.5;" x1="157.61" x2="266.7496" y1="625.67" y2="625.67"/></g><!--class MedMonster--><g class="entity" data-qualified-name="MedMonster" data-source-line="18" id="ent0010"><rect fill="#F1F1F1" height="48" rx="2.5" ry="2.5" style="stroke:#181818;stroke-width:0.5;" width="118.249" x="617.05" y="585.67"/><ellipse cx="632.05" cy="601.67" fill="#ADD1B2" rx="11" ry="11" style="stroke:#181818;stroke-width:1;"/><path d="M635.0188,607.3106 Q634.4406,607.6075 633.8,607.7481 Q633.1594,607.9044 632.4563,607.9044 Q629.9563,607.9044 628.6281,606.2638 Q627.3156,604.6075 627.3156,601.4825 Q627.3156,598.3575 628.6281,596.7013 Q629.9563,595.045 632.4563,595.045 Q633.1594,595.045 633.8,595.2013 Q634.4563,595.3575 635.0188,595.6544 L635.0188,598.3731 Q634.3938,597.795 633.8,597.5294 Q633.2063,597.2481 632.5813,597.2481 Q631.2375,597.2481 630.55,598.3263 Q629.8625,599.3888 629.8625,601.4825 Q629.8625,603.5763 630.55,604.6544 Q631.2375,605.7169 632.5813,605.7169 Q633.2063,605.7169 633.8,605.4513 Q634.3938,605.17 635.0188,604.5919 L635.0188,607.3106 Z " fill="#000000"/><text fill="#000000" font-family="sans-serif" font-size="14" lengthAdjust="spacing" textLength="86.249" x="646.05" y="606.5167">MedMonster</text><line style="stroke:#181818;stroke-width:0.5;" x1="618.05" x2="734.299" y1="617.67" y2="617.67"/><line style="stroke:#181818;stroke-width:0.5;" x1="618.05" x2="734.299" y1="625.67" y2="625.67"/></g><!--class SuperFighter--><g class="entity" data-qualified-name="SuperFighter" data-source-line="19" id="ent0012"><rect fill="#F1F1F1" height="48" rx="2.5" ry="2.5" style="stroke:#181818;stroke-width:0.5;" width="122.5762" x="302.89" y="585.67"/><ellipse cx="317.89" cy="601.67" fill="#ADD1B2" rx="11" ry="11" style="stroke:#181818;stroke-width:1;"/><path d="M320.8588,607.3106 Q320.2806,607.6075 319.64,607.7481 Q318.9994,607.9044 318.2963,607.9044 Q315.7963,607.9044 314.4681,606.2638 Q313.1556,604.6075 313.1556,601.4825 Q313.1556,598.3575 314.4681,596.7013 Q315.7963,595.045 318.2963,595.045 Q318.9994,595.045 319.64,595.2013 Q320.2963,595.3575 320.8588,595.6544 L320.8588,598.3731 Q320.2338,597.795 319.64,597.5294 Q319.0463,597.2481 318.4213,597.2481 Q317.0775,597.2481 316.39,598.3263 Q315.7025,599.3888 315.7025,601.4825 Q315.7025,603.5763 316.39,604.6544 Q317.0775,605.7169 318.4213,605.7169 Q319.0463,605.7169 319.64,605.4513 Q320.2338,605.17 320.8588,604.5919 L320.8588,607.3106 Z " fill="#000000"/><text fill="#000000" font-family="sans-serif" font-size="14" lengthAdjust="spacing" textLength="90.5762" x="331.89" y="606.5167">SuperFighter</text><line style="stroke:#181818;stroke-width:0.5;" x1="303.89" x2="424.4662" y1="617.67" y2="617.67"/><line style="stroke:#181818;stroke-width:0.5;" x1="303.89" x2="424.4662" y1="625.67" y2="625.67"/></g><!--class SuperMonster--><g class="entity" data-qualified-name="SuperMonster" data-source-line="20" id="ent0014"><rect fill="#F1F1F1" height="48" rx="2.5" ry="2.5" style="stroke:#181818;stroke-width:0.5;" width="129.6855" x="770.33" y="585.67"/><ellipse cx="785.33" cy="601.67" fill="#ADD1B2" rx="11" ry="11" style="stroke:#181818;stroke-width:1;"/><path d="M788.2988,607.3106 Q787.7206,607.6075 787.08,607.7481 Q786.4394,607.9044 785.7363,607.9044 Q783.2363,607.9044 781.9081,606.2638 Q780.5956,604.6075 780.5956,601.4825 Q780.5956,598.3575 781.9081,596.7013 Q783.2363,595.045 785.7363,595.045 Q786.4394,595.045 787.08,595.2013 Q787.7363,595.3575 788.2988,595.6544 L788.2988,598.3731 Q787.6738,597.795 787.08,597.5294 Q786.4863,597.2481 785.8613,597.2481 Q784.5175,597.2481 783.83,598.3263 Q783.1425,599.3888 783.1425,601.4825 Q783.1425,603.5763 783.83,604.6544 Q784.5175,605.7169 785.8613,605.7169 Q786.4863,605.7169 787.08,605.4513 Q787.6738,605.17 788.2988,604.5919 L788.2988,607.3106 Z " fill="#000000"/><text fill="#000000" font-family="sans-serif" font-size="14" lengthAdjust="spacing" textLength="97.6855" x="799.33" y="606.5167">SuperMonster</text><line style="stroke:#181818;stroke-width:0.5;" x1="771.33" x2="899.0155" y1="617.67" y2="617.67"/><line style="stroke:#181818;stroke-width:0.5;" x1="771.33" x2="899.0155" y1="625.67" y2="625.67"/></g><!--class GameAbstFactory--><g class="entity" data-qualified-name="GameAbstFactory" data-source-line="23" id="ent0016"><rect fill="#F1F1F1" height="96.8906" rx="2.5" ry="2.5" style="stroke:#181818;stroke-width:0.5;" width="199.4209" x="316.47" y="131.29"/><ellipse cx="350.4016" cy="147.29" fill="#A9DCDF" rx="11" ry="11" style="stroke:#181818;stroke-width:1;"/><path d="M350.511,142.6337 L349.3548,147.7119 L351.6829,147.7119 L350.511,142.6337 Z M349.0266,140.3994 L352.011,140.3994 L355.3704,152.79 L352.9173,152.79 L352.1516,149.7275 L348.8704,149.7275 L348.1204,152.79 L345.6829,152.79 L349.0266,140.3994 Z " fill="#000000"/><text fill="#000000" font-family="sans-serif" font-size="14" font-style="italic" lengthAdjust="spacing" textLength="125.3506" x="368.6087" y="152.1367">GameAbstFactory</text><line style="stroke:#181818;stroke-width:0.5;" x1="317.47" x2="514.8909" y1="163.29" y2="163.29"/><line style="stroke:#181818;stroke-width:0.5;" x1="317.47" x2="514.8909" y1="171.29" y2="171.29"/><g data-visibility-modifier="PUBLIC_METHOD"><ellipse cx="327.47" cy="184.9384" fill="#84BE84" rx="3" ry="3" style="stroke:#038048;stroke-width:1;"/></g><text fill="#000000" font-family="sans-serif" font-size="14" lengthAdjust="spacing" textLength="173.4209" x="336.47" y="188.2851">getAFactory(String type)</text><g data-visibility-modifier="PUBLIC_METHOD"><ellipse cx="327.47" cy="201.2353" fill="#84BE84" rx="3" ry="3" style="stroke:#038048;stroke-width:1;"/></g><text fill="#000000" font-family="sans-serif" font-size="14" font-style="italic" lengthAdjust="spacing" textLength="83.4736" x="336.47" y="204.582">getFighter()</text><g data-visibility-modifier="PUBLIC_METHOD"><ellipse cx="327.47" cy="217.5322" fill="#84BE84" rx="3" ry="3" style="stroke:#038048;stroke-width:1;"/></g><text fill="#000000" font-family="sans-serif" font-size="14" font-style="italic" lengthAdjust="spacing" textLength="90.583" x="336.47" y="220.8789">getMonster()</text></g><!--class SlowGameFactory--><g class="entity" data-qualified-name="SlowGameFactory" data-source-line="30" id="ent0017"><rect fill="#F1F1F1" height="80.5938" rx="2.5" ry="2.5" style="stroke:#181818;stroke-width:0.5;" width="158.8955" x="144.73" y="288.19"/><ellipse cx="159.73" cy="304.19" fill="#ADD1B2" rx="11" ry="11" style="stroke:#181818;stroke-width:1;"/><path d="M162.6988,309.8306 Q162.1206,310.1275 161.48,310.2681 Q160.8394,310.4244 160.1363,310.4244 Q157.6363,310.4244 156.3081,308.7837 Q154.9956,307.1275 154.9956,304.0025 Q154.9956,300.8775 156.3081,299.2212 Q157.6363,297.565 160.1363,297.565 Q160.8394,297.565 161.48,297.7212 Q162.1363,297.8775 162.6988,298.1744 L162.6988,300.8931 Q162.0738,300.315 161.48,300.0494 Q160.8863,299.7681 160.2613,299.7681 Q158.9175,299.7681 158.23,300.8462 Q157.5425,301.9087 157.5425,304.0025 Q157.5425,306.0962 158.23,307.1744 Q158.9175,308.2369 160.2613,308.2369 Q160.8863,308.2369 161.48,307.9712 Q162.0738,307.69 162.6988,307.1119 L162.6988,309.8306 Z " fill="#000000"/><text fill="#000000" font-family="sans-serif" font-size="14" lengthAdjust="spacing" textLength="126.8955" x="173.73" y="309.0367">SlowGameFactory</text><line style="stroke:#181818;stroke-width:0.5;" x1="145.73" x2="302.6255" y1="320.19" y2="320.19"/><line style="stroke:#181818;stroke-width:0.5;" x1="145.73" x2="302.6255" y1="328.19" y2="328.19"/><g data-visibility-modifier="PUBLIC_METHOD"><ellipse cx="155.73" cy="341.8384" fill="#84BE84" rx="3" ry="3" style="stroke:#038048;stroke-width:1;"/></g><text fill="#000000" font-family="sans-serif" font-size="14" lengthAdjust="spacing" textLength="83.4736" x="164.73" y="345.1851">getFighter()</text><g data-visibility-modifier="PUBLIC_METHOD"><ellipse cx="155.73" cy="358.1353" fill="#84BE84" rx="3" ry="3" style="stroke:#038048;stroke-width:1;"/></g><text fill="#000000" font-family="sans-serif" font-size="14" lengthAdjust="spacing" textLength="90.583" x="164.73" y="361.482">getMonster()</text></g><!--class MedGameFactory--><g class="entity" data-qualified-name="MedGameFactory" data-source-line="35" id="ent0019"><rect fill="#F1F1F1" height="80.5938" rx="2.5" ry="2.5" style="stroke:#181818;stroke-width:0.5;" width="155.6826" x="338.33" y="288.19"/><ellipse cx="353.33" cy="304.19" fill="#ADD1B2" rx="11" ry="11" style="stroke:#181818;stroke-width:1;"/><path d="M356.2988,309.8306 Q355.7206,310.1275 355.08,310.2681 Q354.4394,310.4244 353.7363,310.4244 Q351.2363,310.4244 349.9081,308.7837 Q348.5956,307.1275 348.5956,304.0025 Q348.5956,300.8775 349.9081,299.2212 Q351.2363,297.565 353.7363,297.565 Q354.4394,297.565 355.08,297.7212 Q355.7363,297.8775 356.2988,298.1744 L356.2988,300.8931 Q355.6738,300.315 355.08,300.0494 Q354.4863,299.7681 353.8613,299.7681 Q352.5175,299.7681 351.83,300.8462 Q351.1425,301.9087 351.1425,304.0025 Q351.1425,306.0962 351.83,307.1744 Q352.5175,308.2369 353.8613,308.2369 Q354.4863,308.2369 355.08,307.9712 Q355.6738,307.69 356.2988,307.1119 L356.2988,309.8306 Z " fill="#000000"/><text fill="#000000" font-family="sans-serif" font-size="14" lengthAdjust="spacing" textLength="123.6826" x="367.33" y="309.0367">MedGameFactory</text><line style="stroke:#181818;stroke-width:0.5;" x1="339.33" x2="493.0126" y1="320.19" y2="320.19"/><line style="stroke:#181818;stroke-width:0.5;" x1="339.33" x2="493.0126" y1="328.19" y2="328.19"/><g data-visibility-modifier="PUBLIC_METHOD"><ellipse cx="349.33" cy="341.8384" fill="#84BE84" rx="3" ry="3" style="stroke:#038048;stroke-width:1;"/></g><text fill="#000000" font-family="sans-serif" font-size="14" lengthAdjust="spacing" textLength="83.4736" x="358.33" y="345.1851">getFighter()</text><g data-visibility-modifier="PUBLIC_METHOD"><ellipse cx="349.33" cy="358.1353" fill="#84BE84" rx="3" ry="3" style="stroke:#038048;stroke-width:1;"/></g><text fill="#000000" font-family="sans-serif" font-size="14" lengthAdjust="spacing" textLength="90.583" x="358.33" y="361.482">getMonster()</text></g><!--class SuperGameFactory--><g class="entity" data-qualified-name="SuperGameFactory" data-source-line="40" id="ent0021"><rect fill="#F1F1F1" height="80.5938" rx="2.5" ry="2.5" style="stroke:#181818;stroke-width:0.5;" width="167.1191" x="528.62" y="288.19"/><ellipse cx="543.62" cy="304.19" fill="#ADD1B2" rx="11" ry="11" style="stroke:#181818;stroke-width:1;"/><path d="M546.5888,309.8306 Q546.0106,310.1275 545.37,310.2681 Q544.7294,310.4244 544.0263,310.4244 Q541.5263,310.4244 540.1981,308.7837 Q538.8856,307.1275 538.8856,304.0025 Q538.8856,300.8775 540.1981,299.2212 Q541.5263,297.565 544.0263,297.565 Q544.7294,297.565 545.37,297.7212 Q546.0263,297.8775 546.5888,298.1744 L546.5888,300.8931 Q545.9638,300.315 545.37,300.0494 Q544.7763,299.7681 544.1513,299.7681 Q542.8075,299.7681 542.12,300.8462 Q541.4325,301.9087 541.4325,304.0025 Q541.4325,306.0962 542.12,307.1744 Q542.8075,308.2369 544.1513,308.2369 Q544.7763,308.2369 545.37,307.9712 Q545.9638,307.69 546.5888,307.1119 L546.5888,309.8306 Z " fill="#000000"/><text fill="#000000" font-family="sans-serif" font-size="14" lengthAdjust="spacing" textLength="135.1191" x="557.62" y="309.0367">SuperGameFactory</text><line style="stroke:#181818;stroke-width:0.5;" x1="529.62" x2="694.7391" y1="320.19" y2="320.19"/><line style="stroke:#181818;stroke-width:0.5;" x1="529.62" x2="694.7391" y1="328.19" y2="328.19"/><g data-visibility-modifier="PUBLIC_METHOD"><ellipse cx="539.62" cy="341.8384" fill="#84BE84" rx="3" ry="3" style="stroke:#038048;stroke-width:1;"/></g><text fill="#000000" font-family="sans-serif" font-size="14" lengthAdjust="spacing" textLength="83.4736" x="548.62" y="345.1851">getFighter()</text><g data-visibility-modifier="PUBLIC_METHOD"><ellipse cx="539.62" cy="358.1353" fill="#84BE84" rx="3" ry="3" style="stroke:#038048;stroke-width:1;"/></g><text fill="#000000" font-family="sans-serif" font-size="14" lengthAdjust="spacing" textLength="90.583" x="548.62" y="361.482">getMonster()</text></g><!--class ClientGUI--><g class="entity" data-qualified-name="ClientGUI" data-source-line="46" id="ent0023"><rect fill="#F1F1F1" height="64.2969" rx="2.5" ry="2.5" style="stroke:#181818;stroke-width:0.5;" width="97.7549" x="367.3" y="7"/><ellipse cx="382.3" cy="23" fill="#ADD1B2" rx="11" ry="11" style="stroke:#181818;stroke-width:1;"/><path d="M385.2688,28.6406 Q384.6906,28.9375 384.05,29.0781 Q383.4094,29.2344 382.7063,29.2344 Q380.2063,29.2344 378.8781,27.5938 Q377.5656,25.9375 377.5656,22.8125 Q377.5656,19.6875 378.8781,18.0313 Q380.2063,16.375 382.7063,16.375 Q383.4094,16.375 384.05,16.5313 Q384.7063,16.6875 385.2688,16.9844 L385.2688,19.7031 Q384.6438,19.125 384.05,18.8594 Q383.4563,18.5781 382.8313,18.5781 Q381.4875,18.5781 380.8,19.6563 Q380.1125,20.7188 380.1125,22.8125 Q380.1125,24.9063 380.8,25.9844 Q381.4875,27.0469 382.8313,27.0469 Q383.4563,27.0469 384.05,26.7813 Q384.6438,26.5 385.2688,25.9219 L385.2688,28.6406 Z " fill="#000000"/><text fill="#000000" font-family="sans-serif" font-size="14" lengthAdjust="spacing" textLength="65.7549" x="396.3" y="27.8467">ClientGUI</text><line style="stroke:#181818;stroke-width:0.5;" x1="368.3" x2="464.0549" y1="39" y2="39"/><line style="stroke:#181818;stroke-width:0.5;" x1="368.3" x2="464.0549" y1="47" y2="47"/><g data-visibility-modifier="PUBLIC_METHOD"><ellipse cx="378.3" cy="60.6484" fill="#84BE84" rx="3" ry="3" style="stroke:#038048;stroke-width:1;"/></g><text fill="#000000" font-family="sans-serif" font-size="14" lengthAdjust="spacing" textLength="45.9033" x="387.3" y="63.9951">main()</text></g><!--reverse link Fighter to SlowFighter--><g class="link" data-entity-1="ent0002" data-entity-2="ent0004" data-link-type="extension" data-source-line="15" id="lnk5"><path d="M144.4038,537.9589 C121.4638,558.1689 109.31,568.89 90.64,585.34" fill="none" id="Fighter-backto-SlowFighter" style="stroke:#181818;stroke-width:1;stroke-dasharray:7,7;"/><polygon fill="none" points="157.91,526.06,140.4375,533.4568,148.3701,542.4609,157.91,526.06" style="stroke:#181818;stroke-width:1;"/></g><!--reverse link Monster to SlowMonster--><g class="link" data-entity-1="ent0003" data-entity-2="ent0006" data-link-type="extension" data-source-line="16" id="lnk7"><path d="M605.5667,537.6486 C581.5467,557.8586 568.44,568.89 548.9,585.34" fill="none" id="Monster-backto-SlowMonster" style="stroke:#181818;stroke-width:1;stroke-dasharray:7,7;"/><polygon fill="none" points="619.34,526.06,601.7038,533.0575,609.4296,542.2397,619.34,526.06" style="stroke:#181818;stroke-width:1;"/></g><!--reverse link Fighter to MedFighter--><g class="link" data-entity-1="ent0002" data-entity-2="ent0008" data-link-type="extension" data-source-line="17" id="lnk9"><path d="M212.18,544.06 C212.18,564.27 212.18,568.89 212.18,585.34" fill="none" id="Fighter-backto-MedFighter" style="stroke:#181818;stroke-width:1;stroke-dasharray:7,7;"/><polygon fill="none" points="212.18,526.06,206.18,544.06,218.18,544.06,212.18,526.06" style="stroke:#181818;stroke-width:1;"/></g><!--reverse link Monster to MedMonster--><g class="link" data-entity-1="ent0003" data-entity-2="ent0010" data-link-type="extension" data-source-line="18" id="lnk11"><path d="M676.18,544.06 C676.18,564.27 676.18,568.89 676.18,585.34" fill="none" id="Monster-backto-MedMonster" style="stroke:#181818;stroke-width:1;stroke-dasharray:7,7;"/><polygon fill="none" points="676.18,526.06,670.18,544.06,682.18,544.06,676.18,526.06" style="stroke:#181818;stroke-width:1;"/></g><!--reverse link Fighter to SuperFighter--><g class="link" data-entity-1="ent0002" data-entity-2="ent0012" data-link-type="extension" data-source-line="19" id="lnk13"><path d="M281.5721,537.7795 C305.1321,557.9895 317.82,568.89 336.99,585.34" fill="none" id="Fighter-backto-SuperFighter" style="stroke:#181818;stroke-width:1;stroke-dasharray:7,7;"/><polygon fill="none" points="267.91,526.06,277.6656,542.3335,285.4786,533.2255,267.91,526.06" style="stroke:#181818;stroke-width:1;"/></g><!--reverse link Monster to SuperMonster--><g class="link" data-entity-1="ent0003" data-entity-2="ent0014" data-link-type="extension" data-source-line="20" id="lnk15"><path d="M748.3974,537.4752 C773.0374,557.6852 786.69,568.89 806.74,585.34" fill="none" id="Monster-backto-SuperMonster" style="stroke:#181818;stroke-width:1;stroke-dasharray:7,7;"/><polygon fill="none" points="734.48,526.06,744.5923,542.1143,752.2024,532.8361,734.48,526.06" style="stroke:#181818;stroke-width:1;"/></g><!--reverse link GameAbstFactory to SlowGameFactory--><g class="link" data-entity-1="ent0016" data-entity-2="ent0017" data-link-type="extension" data-source-line="31" id="lnk18"><path d="M339.2678,239.5192 C314.2078,258.6692 299.99,269.54 276.1,287.79" fill="none" id="GameAbstFactory-backto-SlowGameFactory" style="stroke:#181818;stroke-width:1;"/><polygon fill="none" points="353.57,228.59,335.6248,234.7518,342.9109,244.2866,353.57,228.59" style="stroke:#181818;stroke-width:1;"/></g><!--reverse link GameAbstFactory to MedGameFactory--><g class="link" data-entity-1="ent0016" data-entity-2="ent0019" data-link-type="extension" data-source-line="36" id="lnk20"><path d="M416.18,246.38 C416.18,265.63 416.18,269.58 416.18,287.93" fill="none" id="GameAbstFactory-backto-MedGameFactory" style="stroke:#181818;stroke-width:1;"/><polygon fill="none" points="416.18,228.38,410.18,246.38,422.18,246.38,416.18,228.38" style="stroke:#181818;stroke-width:1;"/></g><!--reverse link GameAbstFactory to SuperGameFactory--><g class="link" data-entity-1="ent0016" data-entity-2="ent0021" data-link-type="extension" data-source-line="41" id="lnk22"><path d="M494.4895,239.3774 C520.0695,258.5274 534.79,269.54 559.17,287.79" fill="none" id="GameAbstFactory-backto-SuperGameFactory" style="stroke:#181818;stroke-width:1;"/><polygon fill="none" points="480.08,228.59,490.8937,244.1805,498.0853,234.5742,480.08,228.59" style="stroke:#181818;stroke-width:1;"/></g><!--link ClientGUI to GameAbstFactory--><g class="link" data-entity-1="ent0023" data-entity-2="ent0016" data-link-type="dependency" data-source-line="50" id="lnk24"><path codeLine="50" d="M416.18,71.6 C416.18,89.09 416.18,105.22 416.18,124.82" fill="none" id="ClientGUI-to-GameAbstFactory" style="stroke:#181818;stroke-width:1;"/><polygon fill="#181818" points="416.18,130.82,420.18,121.82,416.18,125.82,412.18,121.82,416.18,130.82" style="stroke:#181818;stroke-width:1;"/></g><!--link SlowGameFactory to SlowFighter--><g class="link" data-entity-1="ent0017" data-entity-2="ent0004" data-link-type="dependency" data-source-line="51" id="lnk25"><path codeLine="51" d="M183.49,368.97 C167.27,386.24 149.36,407.41 136.18,428.78 C104.02,480.88 82.9028,544.0667 72.3928,579.5767" fill="none" id="SlowGameFactory-to-SlowFighter" style="stroke:#181818;stroke-width:1;stroke-dasharray:7,7;"/><polygon fill="#181818" points="70.69,585.33,77.0798,577.8353,72.109,580.5356,69.4087,575.5648,70.69,585.33" style="stroke:#181818;stroke-width:1;"/></g><!--link SlowGameFactory to SlowMonster--><g class="link" data-entity-1="ent0017" data-entity-2="ent0006" data-link-type="dependency" data-source-line="52" id="lnk26"><path codeLine="52" d="M266.41,369.19 C329.35,428.35 441.3979,533.6809 492.1179,581.3509" fill="none" id="SlowGameFactory-to-SlowMonster" style="stroke:#181818;stroke-width:1;stroke-dasharray:7,7;"/><polygon fill="#181818" points="496.49,585.46,492.6713,576.3816,492.8466,582.0357,487.1925,582.211,496.49,585.46" style="stroke:#181818;stroke-width:1;"/></g><!--link MedGameFactory to MedFighter--><g class="link" data-entity-1="ent0019" data-entity-2="ent0008" data-link-type="dependency" data-source-line="53" id="lnk27"><path codeLine="53" d="M392.96,369.11 C368.59,409.68 328.31,473.93 288.18,525.67 C271.77,546.82 255.3313,564.7872 239.7113,580.9372" fill="none" id="MedGameFactory-to-MedFighter" style="stroke:#181818;stroke-width:1;stroke-dasharray:7,7;"/><polygon fill="#181818" points="235.54,585.25,244.6721,581.5616,239.0161,581.656,238.9217,575.9999,235.54,585.25" style="stroke:#181818;stroke-width:1;"/></g><!--link MedGameFactory to MedMonster--><g class="link" data-entity-1="ent0019" data-entity-2="ent0010" data-link-type="dependency" data-source-line="54" id="lnk28"><path codeLine="54" d="M449.06,369.17 C482.92,409.51 537.71,473.34 588.18,525.67 C608.29,546.53 627.8594,564.9741 645.7094,581.2741" fill="none" id="MedGameFactory-to-MedMonster" style="stroke:#181818;stroke-width:1;stroke-dasharray:7,7;"/><polygon fill="#181818" points="650.14,585.32,646.1913,576.2974,646.4478,581.9484,640.7968,582.2049,650.14,585.32" style="stroke:#181818;stroke-width:1;"/></g><!--link SuperGameFactory to SuperFighter--><g class="link" data-entity-1="ent0021" data-entity-2="ent0012" data-link-type="dependency" data-source-line="55" id="lnk29"><path codeLine="55" d="M576.91,369.19 C524.35,428.35 431.125,533.3045 388.775,580.9745" fill="none" id="SuperGameFactory-to-SuperFighter" style="stroke:#181818;stroke-width:1;stroke-dasharray:7,7;"/><polygon fill="#181818" points="384.79,585.46,393.7578,581.3883,388.1108,581.722,387.7771,576.075,384.79,585.46" style="stroke:#181818;stroke-width:1;"/></g><!--link SuperGameFactory to SuperMonster--><g class="link" data-entity-1="ent0021" data-entity-2="ent0014" data-link-type="dependency" data-source-line="56" id="lnk30"><path codeLine="56" d="M692.49,369.15 C718.08,384.88 744.76,404.96 764.18,428.78 C803.22,476.66 821.5416,542.7756 829.4816,579.4856" fill="none" id="SuperGameFactory-to-SuperMonster" style="stroke:#181818;stroke-width:1;stroke-dasharray:7,7;"/><polygon fill="#181818" points="830.75,585.35,832.757,575.7078,829.693,580.463,824.9378,577.399,830.75,585.35" style="stroke:#181818;stroke-width:1;"/></g><?plantuml-src jL91IiD05Dtd5BDhH9eZ58hGqaLNGLrFazyuC9c4P4H3wK9141TkUW85SI4ehW92RzEq7iD9CvDCKvjiT5QPzzz__-NDxw3rm_BxysdrzPejRWp2E4HJx00Q4Ez2VAEPWSGvHXvmEmHmpQCAE0SS1gn4fdcBkCqDJMSSiBYcSqOufeGdkjH8D51AF60EbFY4S2ZqEYYxIrVBXRJfK1p7oAR1bR99_9223up7ohb6KXuqaeGaQGnkgv3WjEhObo54xPPoLeEM-DlYKRBq9NkyDV0avX5sE2hQXzY7le060WgYH4-sBp7JvX5X7k9922hCcPAPvqpfoFozAftiPY_TLB7cHfG9kER0t4PpzP7rEMNC_wAx3VsFbKKoxy_h-tJpzY6dd50Ydd9uEYfbV4nOmQvgtMvlRwnHJzIohDxEYXzcg5qoQk5j2Tfk7wgN_NiX5IFqhMxYI9qV?></g></svg>